<svg xmlns="http://www.w3.org/2000/svg" viewBox="0 0 16 16" fill="rgba(55, 53, 47, 0.45)">
    <path d="M4.74609 15.6934C5.13574 15.6934 5.42285 15.502 5.89453 15.085L8.23926 13.0205H12.3545C14.4121 13.0205 15.5674 11.8311 15.5674 9.80078V4.48926C15.5674 2.45898 14.4121 1.26953 12.3545 1.26953H3.63867C1.58789 1.26953 0.425781 2.45898 0.425781 4.48926V9.80078C0.425781 11.8379 1.62207 13.0205 3.59082 13.0205H3.87109V14.6953C3.87109 15.3037 4.19238 15.6934 4.74609 15.6934ZM5.08789 14.1621V12.2139C5.08789 11.8105 4.91016 11.6533 4.52734 11.6533H3.68652C2.40137 11.6533 1.78613 11.0039 1.78613 9.75977V4.53027C1.78613 3.28613 2.40137 2.63672 3.68652 2.63672H12.3135C13.5918 2.63672 14.207 3.28613 14.207 4.53027V9.75977C14.207 11.0039 13.5918 11.6533 12.3135 11.6533H8.16406C7.74707 11.6533 7.54199 11.7217 7.25488 12.0225L5.08789 14.1621ZM4.70508 8.29004C5.26562 8.29004 5.7168 7.83203 5.7168 7.27148C5.7168 6.71094 5.26562 6.25293 4.70508 6.25293C4.1377 6.25293 3.67969 6.71094 3.67969 7.27148C3.67969 7.83203 4.1377 8.29004 4.70508 8.29004ZM8 8.29004C8.56055 8.29004 9.01855 7.83203 9.01855 7.27148C9.01855 6.71094 8.56055 6.25293 8 6.25293C7.43945 6.25293 6.98145 6.71094 6.98145 7.27148C6.98145 7.83203 7.43945 8.29004 8 8.29004ZM11.3018 8.29004C11.8623 8.29004 12.3203 7.83203 12.3203 7.27148C12.3203 6.71094 11.8623 6.25293 11.3018 6.25293C10.7412 6.25293 10.2832 6.71094 10.2832 7.27148C10.2832 7.83203 10.7412 8.29004 11.3018 8.29004Z"></path>
</svg>